<svg width="15" height="16" viewBox="0 0 15 16" fill="none" xmlns="http://www.w3.org/2000/svg">
<path d="M12.6981 2.77046C11.7421 2.30254 10.7169 1.9578 9.64494 1.76035C9.62541 1.75654 9.60592 1.76606 9.59586 1.78511C9.46401 2.03525 9.31796 2.36158 9.21568 2.61808C8.06275 2.43397 6.91574 2.43397 5.78645 2.61808C5.68415 2.35588 5.5328 2.03525 5.40036 1.78511C5.3903 1.7667 5.3708 1.75717 5.35128 1.76035C4.27994 1.95717 3.25473 2.30191 2.29808 2.77046C2.2898 2.77427 2.2827 2.78063 2.27799 2.78887C0.33337 5.88778 -0.199344 8.91052 0.0619876 11.8958C0.06317 11.9104 0.0708562 11.9244 0.0814988 11.9332C1.36451 12.9383 2.60732 13.5484 3.82705 13.9528C3.84657 13.9592 3.86725 13.9516 3.87968 13.9344C4.1682 13.5141 4.4254 13.071 4.64592 12.6049C4.65894 12.5777 4.64651 12.5453 4.61992 12.5345C4.21196 12.3694 3.8235 12.1681 3.44983 11.9396C3.42027 11.9212 3.41791 11.8761 3.4451 11.8545C3.52373 11.7916 3.60239 11.7263 3.67747 11.6602C3.69106 11.6482 3.70999 11.6456 3.72596 11.6532C6.1808 12.8488 8.83846 12.8488 11.2643 11.6532C11.2803 11.645 11.2992 11.6475 11.3134 11.6596C11.3885 11.7256 11.4672 11.7916 11.5464 11.8545C11.5736 11.8761 11.5718 11.9212 11.5422 11.9396C11.1686 12.1726 10.7801 12.3694 10.3716 12.5338C10.345 12.5446 10.3331 12.5777 10.3462 12.6049C10.5714 13.0703 10.8286 13.5135 11.1118 13.9338C11.1236 13.9516 11.1449 13.9592 11.1644 13.9528C12.3901 13.5484 13.6329 12.9383 14.9159 11.9332C14.9271 11.9244 14.9342 11.911 14.9354 11.8964C15.2482 8.44512 14.4116 5.44717 12.7176 2.78951C12.7135 2.78063 12.7064 2.77427 12.6981 2.77046ZM5.01251 10.0781C4.27344 10.0781 3.66446 9.35431 3.66446 8.46545C3.66446 7.57659 4.26163 6.85283 5.01251 6.85283C5.7693 6.85283 6.37238 7.58295 6.36055 8.46545C6.36055 9.35431 5.76338 10.0781 5.01251 10.0781ZM9.99672 10.0781C9.25766 10.0781 8.64868 9.35431 8.64868 8.46545C8.64868 7.57659 9.24583 6.85283 9.99672 6.85283C10.7535 6.85283 11.3566 7.58295 11.3448 8.46545C11.3448 9.35431 10.7535 10.0781 9.99672 10.0781Z" fill="#AEB9E1"/>
</svg>
