<?xml version="1.0" encoding="UTF-8"?>
<svg id="Warstwa_1" xmlns="http://www.w3.org/2000/svg" xmlns:xlink="http://www.w3.org/1999/xlink" version="1.1" viewBox="0 0 283.5 283.5">
  <!-- Generator: Adobe Illustrator 29.1.0, SVG Export Plug-In . SVG Version: 2.1.0 Build 142)  -->
  <defs>
    <style>
      .st0 {
        fill: url(#Lato);
      }

      .st1 {
        fill: #402564;
      }
    </style>
    <radialGradient id="Lato" cx="62.4" cy="67" fx="62.4" fy="67" r="293.8" gradientUnits="userSpaceOnUse">
      <stop offset="0" stop-color="#fff"/>
      <stop offset="0" stop-color="#fdf1e5"/>
      <stop offset=".2" stop-color="#fad8b4"/>
      <stop offset=".3" stop-color="#f8c28a"/>
      <stop offset=".4" stop-color="#f6b167"/>
      <stop offset=".6" stop-color="#f4a34d"/>
      <stop offset=".7" stop-color="#f3993a"/>
      <stop offset=".9" stop-color="#f3932e"/>
      <stop offset="1" stop-color="#f3922b"/>
    </radialGradient>
  </defs>
  <path class="st1" d="M236.6,142.8h19.5v-19.5h-38.1v-37.6c0-.5.5-2.2.7-2.7,1.6-4.1,5.8-7,10.2-6.9v-3.9h-63.1v3.6l.2.2h3.3c4.5,0,9.6,5.5,9.6,9.9v87.9c-.4,5.9-.8,12.8-4.7,17.6-5.6,6.9-17.4,7.1-25.5,7.1-9.5,0-24.9.9-31.4-7.3-4.2-5.3-4.4-13.1-4.6-19.7-.8-28.2.3-56.5-.1-84.7.1-4.5,3-8.6,7.2-10.1.5-.2,1.9-.6,2.3-.6h3.5v-3.9h-63.1v3.6c.3.3.8.1,1.2.2,5.4.6,9.5,5,9.8,10.3v37h-38.7v19.5h38.7v19.4h-38.7v19.5h40.7c4.8,20.9,17.9,37.8,40.1,45,7.6,2.5,15,3.3,23.1,3.6.2,0,.4-.1.4.2h12.2c.9-.2,1.9,0,2.8-.1,20.5-.8,39.5-8.1,51.6-25.1,5.3-7.4,8.5-15.3,10.3-23.7h40.1v-19.5h-38c0-2.1,0-4.2,0-6.3,0,0,0,0,0,0v-13h18.6ZM217.9,153.5v2.2c0-.7,0-1.5,0-2.2Z"/>
  <path class="st0" d="M232.6,138.2h19.5v-19.5h-38.1v-37.6c0-.5.5-2.2.7-2.7,1.6-4.1,5.8-7,10.2-6.9v-3.9h-63.1v3.6l.2.2h3.3c4.5,0,9.6,5.5,9.6,9.9v87.9c-.4,5.9-.8,12.8-4.7,17.6-5.6,6.9-17.4,7.1-25.5,7.1-9.5,0-24.9.9-31.4-7.3-4.2-5.3-4.4-13.1-4.6-19.7-.8-28.2.3-56.5-.1-84.7.1-4.5,3-8.6,7.2-10.1.5-.2,1.9-.6,2.3-.6h3.5v-3.9h-63.1v3.6c.3.3.8.1,1.2.2,5.4.6,9.5,5,9.8,10.3v37H30.8v19.5h38.7v19.4H30.8v19.5h40.7c4.8,20.9,17.9,37.8,40.1,45,7.6,2.5,15,3.3,23.1,3.6.2,0,.4-.1.4.2h12.2c.9-.2,1.9,0,2.8-.1,20.5-.8,39.5-8.1,51.6-25.1,5.3-7.4,8.5-15.3,10.3-23.7h40.1v-19.5h-38c0-2.1,0-4.2,0-6.3,0,0,0,0,0,0v-13h18.6ZM213.9,148.9v2.2c0-.7,0-1.5,0-2.2Z"/>
</svg>