<svg width="17" height="16" viewBox="0 0 17 16" fill="none" xmlns="http://www.w3.org/2000/svg">
<path d="M14.0104 7.21565L3.45625 2.06719C3.35482 2.01777 3.24249 1.99497 3.12982 2.00093C3.01715 2.00689 2.90785 2.04142 2.81221 2.10126C2.71657 2.16111 2.63773 2.24431 2.58311 2.34302C2.52849 2.44174 2.49989 2.55273 2.5 2.66555V2.68464C2.50005 2.77382 2.51105 2.86267 2.53273 2.94918L3.54516 6.99856C3.55874 7.05251 3.58848 7.10101 3.6304 7.13757C3.67233 7.17413 3.72443 7.197 3.77973 7.2031L8.22931 7.69782C8.30334 7.70673 8.37155 7.74245 8.42103 7.79823C8.4705 7.85401 8.49783 7.92599 8.49783 8.00055C8.49783 8.07511 8.4705 8.14708 8.42103 8.20286C8.37155 8.25864 8.30334 8.29436 8.22931 8.30327L3.77973 8.79799C3.72443 8.80409 3.67233 8.82696 3.6304 8.86352C3.58848 8.90008 3.55874 8.94858 3.54516 9.00253L2.53273 13.0514C2.51105 13.1379 2.50005 13.2267 2.5 13.3159V13.335C2.49998 13.4478 2.52865 13.5587 2.58331 13.6573C2.63796 13.756 2.71682 13.8391 2.81244 13.8989C2.90807 13.9587 3.01734 13.9931 3.12996 13.9991C3.24258 14.005 3.35487 13.9822 3.45625 13.9328L14.0099 8.78435C14.1569 8.71265 14.2807 8.60111 14.3674 8.46243C14.4541 8.32375 14.5 8.16352 14.5 8C14.5 7.83648 14.4541 7.67625 14.3674 7.53757C14.2807 7.39889 14.1574 7.28735 14.0104 7.21565Z" fill="white"/>
</svg>
