<svg xmlns="http://www.w3.org/2000/svg" xmlns:xlink="http://www.w3.org/1999/xlink" viewBox="0 0 283.5 283.5"><defs><radialGradient id="Lato" cx="-8.5" cy="117.9" r="333.1" fx="-8.5" fy="117.9" gradientUnits="userSpaceOnUse"><stop offset="0" stop-color="#fff"/><stop offset="0" stop-color="#fdf1e5"/><stop offset=".2" stop-color="#fad8b4"/><stop offset=".3" stop-color="#f8c28a"/><stop offset=".4" stop-color="#f6b167"/><stop offset=".6" stop-color="#f4a34d"/><stop offset=".7" stop-color="#f3993a"/><stop offset=".9" stop-color="#f3932e"/><stop offset="1" stop-color="#f3922b"/></radialGradient><radialGradient xlink:href="#Lato" id="Lato1" cx="-8.5" r="333.1" data-name="Lato" fx="-8.5"/><radialGradient xlink:href="#Lato" id="Lato2" cx="-8.5" r="333.1" data-name="Lato" fx="-8.5"/><radialGradient xlink:href="#Lato" id="Lato3" cx="-8.5" r="333.1" data-name="Lato" fx="-8.5"/><radialGradient xlink:href="#Lato" id="Lato4" cx="-8.5" r="333.1" data-name="Lato" fx="-8.5"/><radialGradient xlink:href="#Lato" id="Lato5" cx="-8.5" r="333.1" data-name="Lato" fx="-8.5"/><radialGradient xlink:href="#Lato" id="Lato6" cx="-8.5" r="333.1" data-name="Lato" fx="-8.5"/><radialGradient xlink:href="#Lato" id="Lato7" cx="-8.5" r="333.1" data-name="Lato" fx="-8.5"/><radialGradient xlink:href="#Lato" id="Lato8" cx="-8.5" r="333.1" data-name="Lato" fx="-8.5"/><radialGradient xlink:href="#Lato" id="Lato9" cx="-8.5" r="333.1" data-name="Lato" fx="-8.5"/><radialGradient xlink:href="#Lato" id="Lato10" cx="-8.5" r="333.1" data-name="Lato" fx="-8.5"/><radialGradient xlink:href="#Lato" id="Lato11" cx="-8.5" r="333.1" data-name="Lato" fx="-8.5"/><radialGradient xlink:href="#Lato" id="Lato12" cx="-8.5" r="333.1" data-name="Lato" fx="-8.5"/><radialGradient xlink:href="#Lato" id="Lato13" cx="-8.5" r="333.1" data-name="Lato" fx="-8.5"/><radialGradient xlink:href="#Lato" id="Lato14" cx="-8.5" r="333.1" data-name="Lato" fx="-8.5"/><radialGradient xlink:href="#Lato" id="Lato15" cx="-8.5" r="333.1" data-name="Lato" fx="-8.5"/><radialGradient xlink:href="#Lato" id="Lato16" cx="-8.5" r="333.1" data-name="Lato" fx="-8.5"/><radialGradient xlink:href="#Lato" id="Lato17" cx="-8.5" r="333.1" data-name="Lato" fx="-8.5"/><radialGradient xlink:href="#Lato" id="Lato18" cx="-8.5" r="333.1" data-name="Lato" fx="-8.5"/><radialGradient xlink:href="#Lato" id="Lato19" cx="-8.5" r="333.1" data-name="Lato" fx="-8.5"/><radialGradient xlink:href="#Lato" id="Lato20" cx="60.2" cy="92.9" r="231.8" data-name="Lato" fx="60.2" fy="92.9"/><radialGradient xlink:href="#Lato" id="Lato21" cx="60.2" cy="92.9" r="231.8" data-name="Lato" fx="60.2" fy="92.9" gradientTransform="rotate(90 92.7 95.1)"/><radialGradient xlink:href="#Lato" id="Lato22" cx="60.2" cy="92.9" r="231.8" data-name="Lato" fx="60.2" fy="92.9" gradientTransform="rotate(90 102.3 95.1)"/><radialGradient xlink:href="#Lato" id="Lato23" cx="60.2" cy="92.9" r="231.8" data-name="Lato" fx="60.2" fy="92.9" gradientTransform="rotate(90 92.7 114.4)"/><radialGradient xlink:href="#Lato" id="Lato24" cx="60.2" cy="92.9" r="231.8" data-name="Lato" fx="60.2" fy="92.9" gradientTransform="rotate(90 105.9 114.4)"/><radialGradient xlink:href="#Lato" id="Lato25" cx="60.2" cy="92.9" r="231.8" data-name="Lato" fx="60.2" fy="92.9" gradientTransform="rotate(90 182.9 95.1)"/><radialGradient xlink:href="#Lato" id="Lato26" cx="60.2" cy="92.9" r="231.8" data-name="Lato" fx="60.2" fy="92.9" gradientTransform="rotate(90 192.5 95.1)"/><radialGradient xlink:href="#Lato" id="Lato27" cx="60.2" cy="92.9" r="231.8" data-name="Lato" fx="60.2" fy="92.9" gradientTransform="rotate(90 178 114.4)"/><radialGradient xlink:href="#Lato" id="Lato28" cx="60.2" cy="92.9" r="231.8" data-name="Lato" fx="60.2" fy="92.9" gradientTransform="rotate(90 192.55 114.35)"/><style>.st1{fill:#402564}</style></defs><g style="isolation:isolate"><g id="Warstwa_1"><path d="m27.7 168.1 6.4-.5v12.7c0 5.4.9 2.6 2.9 2.6s3.2-.8 3.2-2.4v-12.7l6.8-.6s-.6 9.2-.6 14.6-4 6.4-8.9 6.4-9.4-2.4-9.4-6.6-.3-13.3-.3-13.3Z" style="fill:url(#Lato)"/><path d="m52.7 187.4-6.4.4 1.7-22.2 5.7 1 6.7 11v-11.4c.1 0 6.3-.5 6.3-.5l-1.2 21.6-5.8 1-6.9-12.6v11.7Z" style="fill:url(#Lato1)"/><path d="m66.4 167.2 6.5-.9.4 20.3-5.8 1-1.1-20.4Z" style="fill:url(#Lato2)"/><path d="m73 166.6 18.4-1.5v5.8c-.1 0-5.4.3-5.4.3l.6 15.8-6.6-.6-.6-15-5.6.7-.9-5.4Z" style="fill:url(#Lato3)"/><path d="m107.5 165.7-.7 5.2h-8.9v2.6l7.9.3v4.7l-7.9-.3v2.8l9.8.6-.8 5.9-14.5-.9-1.2-20.3 16.2-.7Z" style="fill:url(#Lato4)"/><path d="M117.1 166.3c7.1 0 10.8 3.8 10.8 10.7s-4.2 11.3-9.7 11.3-10.1-.7-10.1-.7l-1-20s7-1.3 9.9-1.3Zm-2.8 16.1 3.5-.2c2 0 3.1-1.7 3.1-5.4s-1.5-5-3.6-5c0 0-3 .3-3.1.3v10.4Z" style="fill:url(#Lato5)"/><path d="M142.8 172.3c0 1.1 1.8 1.2 3.6 1.6 6.4 1.3 8.6 3.2 8.6 7.5s-3.9 6-9.1 6-7.8-.8-10.3-4.1l4.9-3.8c1 1.8 3 2.5 4.8 2.5s3.7-.2 3.7-1-1.3-1.4-3.9-1.9c-6.5-1.4-8.8-2.8-8.8-7.1s3.9-6.3 9.5-6.3 7.6 1.6 9.2 4.7l-5.2 3.3c-.6-1.8-2.1-2.8-3.9-2.8s-3.2.7-3.2 1.5Z" style="fill:url(#Lato6)"/><path d="M155.9 177c0-6.7 4-10.8 10.7-10.8s9.3 3.9 9.3 11.8-3.7 9.7-10.4 9.7-9.7-3.3-9.7-10.7Zm6.5 0c0 3.5 1.6 5.2 4.1 5.2s3.1-1.4 3.1-5.3-.3-5.3-2.7-5.3-4.4 1.9-4.4 5.4Z" style="fill:url(#Lato7)"/><path d="M197.3 182.7c-1.7 3.2-4.8 5-10 5s-10.4-2.6-10.4-9.9 4.2-11.6 10-11.6 9 2.4 10.2 6.3l-5.6 2.9c-.4-2.4-1.9-3.8-3.7-3.8s-4.3 1.7-4.3 5.2 1.9 5.3 4.2 5.3 3.4-1.2 4-2.8l5.5 3.5Z" style="fill:url(#Lato8)"/><path d="m197.2 167.2 6.5-.9.4 20.3-5.8 1-1.1-20.4Z" style="fill:url(#Lato9)"/><path d="m220.4 165.7-.7 5.2h-8.9v2.6l7.9.3v4.7l-7.9-.3v2.8l9.8.6-.8 5.9-14.5-.9-1.2-20.3 16.2-.7Z" style="fill:url(#Lato10)"/><path d="m219.8 166.6 18.4-1.5v5.8c-.1 0-5.4.3-5.4.3l.6 15.8-6.6-.6-.6-15-5.6.7-.9-5.4Z" style="fill:url(#Lato11)"/><path d="m237.8 167.2 7.4-1 2.9 7.8 4-7.5 7.3 1.2-8.2 11.9-.5 8.2-6.2-.9.3-7.6-7.1-12Z" style="fill:url(#Lato12)"/><path d="M66.6 207.6c0-6.7 4-10.8 10.7-10.8s9.3 3.9 9.3 11.8-3.7 9.7-10.4 9.7-9.7-3.3-9.7-10.7Zm6.5.1c0 3.5 1.6 5.2 4.1 5.2s3.1-1.4 3.1-5.3-.3-5.3-2.7-5.3-4.4 1.9-4.4 5.4Z" style="fill:url(#Lato13)"/><path d="m86.6 197.4 16.9-1.2-.6 5.3-9.8.6.2 3.6 8.4.3v4.8l-8.4-.4.3 7.9-5.7-.4-1.3-20.4Z" style="fill:url(#Lato14)"/><path d="m111.7 198.4 7.7-.6 3.6 10.7 3.8-10.4 7.8-.8-.2 21.3-5.8-.3.3-11.2-3.6 10.2-4.7.3L118 207l.4 11.2-5.8.5-.8-20.4Z" style="fill:url(#Lato15)"/><path d="m151.1 196.3-.7 5.2h-8.9v2.6l7.9.3v4.7l-7.9-.3v2.8l9.8.6-.8 5.9-14.5-.9-1.2-20.3 16.2-.7Z" style="fill:url(#Lato16)"/><path d="m151.1 198.4 7.7-.6 3.6 10.7 3.8-10.4 7.8-.8-.2 21.3-5.8-.3.3-11.2-3.6 10.2-4.7.3-2.6-10.6.4 11.2-5.8.5-.8-20.4Z" style="fill:url(#Lato17)"/><path d="m190.5 196.3-.7 5.2h-8.9v2.6l7.9.3v4.7l-7.9-.3v2.8l9.8.6-.8 5.9-14.5-.9-1.2-20.3 16.2-.7Z" style="fill:url(#Lato18)"/><path d="M197.5 203c0 1.1 1.8 1.2 3.6 1.6 6.4 1.3 8.6 3.2 8.6 7.5s-3.9 6-9.1 6-7.8-.8-10.3-4.1l4.9-3.8c1 1.8 3 2.5 4.8 2.5s3.7-.2 3.7-1-1.3-1.4-3.9-1.9c-6.5-1.4-8.8-2.8-8.8-7.1s3.9-6.3 9.5-6.3 7.6 1.6 9.2 4.7l-5.2 3.3c-.6-1.8-2.1-2.8-3.9-2.8s-3.2.7-3.2 1.5Z" style="fill:url(#Lato19)"/><g style="mix-blend-mode:multiply"><path d="M180.5 108.7V73.9c0-.3.3-1.1.4-1.4.8-2 2.9-3.5 5-3.4v-1.9h-31.2V69h1.6c2.2 0 4.7 2.7 4.8 4.9v43.5c-.2 2.9-.4 6.4-2.3 8.7-2.8 3.4-8.6 3.5-12.6 3.5s-12.3.4-15.5-3.6c-2.1-2.6-2.2-6.5-2.3-9.7-.4-14 .2-28 0-41.9 0-2.2 1.5-4.3 3.6-5s.9-.3 1.1-.3h1.7v-1.9h-31.2V69c.1.1.4 0 .6 0 2.7.3 4.7 2.5 4.9 5.1v39.2c.4 14 7.2 25.8 20.8 30.3 3.8 1.2 7.4 1.6 11.4 1.8s.2 0 .2.1h6c.4-.1.9 0 1.4 0 10.1-.4 19.5-4 25.6-12.4 5.2-7.3 6.3-15.7 6.1-24.5 0-.4-.1-.8 0-1.2m-90.7-5.2v-9.6h9.6v9.6z" class="st1"/><path d="M99.5 102.2v-9.6h9.6v9.6zm-9.7 19.2v-9.6h9.6v9.6zm9.7.1v-9.6h16.8v9.6zm80.6-19.3v-9.6h9.6v9.6zm9.6 0v-9.6h9.6v9.6zm-19.5 19.2v-9.6h19.4v9.6zm19.5.1v-9.6h9.6v9.6z" class="st1"/></g><path d="M178.5 106.4V71.6c0-.3.3-1.1.4-1.4.8-2 2.9-3.5 5-3.4v-1.9h-31.2v1.8h1.6c2.2 0 4.7 2.7 4.8 4.9v43.5c-.2 2.9-.4 6.4-2.3 8.7-2.8 3.4-8.6 3.5-12.6 3.5s-12.3.4-15.5-3.6c-2.1-2.6-2.2-6.5-2.3-9.7-.4-14 .2-28 0-41.9 0-2.2 1.5-4.3 3.6-5 .2 0 .9-.3 1.1-.3h1.7v-1.9h-31.2v1.8c.1.1.4 0 .6 0 2.7.3 4.7 2.5 4.9 5.1V111c.4 14 7.2 25.8 20.8 30.3 3.8 1.2 7.4 1.6 11.4 1.8s.2 0 .2.1h6c.4-.1.9 0 1.4 0 10.1-.4 19.5-4 25.6-12.4 5.2-7.3 6.3-15.7 6.1-24.5 0-.4-.1-.8 0-1.2" style="fill:url(#Lato20)"/><path d="M87.9 90.3h9.6v9.6h-9.6z" style="fill:url(#Lato21)" transform="rotate(-90 92.7 95.1)"/><path d="M97.5 90.3h9.6v9.6h-9.6z" style="fill:url(#Lato22)" transform="rotate(-90 102.3 95.1)"/><path d="M87.9 109.6h9.6v9.6h-9.6z" style="fill:url(#Lato23)" transform="rotate(-90 92.7 114.4)"/><path d="M101.1 106h9.6v16.8h-9.6z" style="fill:url(#Lato24)" transform="rotate(-90 105.9 114.4)"/><path d="M178.1 90.3h9.6v9.6h-9.6z" style="fill:url(#Lato25)" transform="rotate(-90 182.9 95.1)"/><path d="M187.7 90.3h9.6v9.6h-9.6z" style="fill:url(#Lato26)" transform="rotate(-90 192.5 95.1)"/><path d="M173.2 104.7h9.6v19.4h-9.6z" style="fill:url(#Lato27)" transform="rotate(-90 178 114.4)"/><path d="M187.7 109.6h9.6v9.6h-9.6z" style="fill:url(#Lato28)" transform="rotate(-90 192.55 114.35)"/></g></g></svg>