<svg width="16" height="16" viewBox="0 0 16 16" fill="none" xmlns="http://www.w3.org/2000/svg">
<path d="M10 5.66563V2.74028C10 2.14739 9.51933 1.66675 8.92647 1.66675C8.75573 1.66675 8.58747 1.70747 8.4356 1.78553L2.5082 4.83293C2.19616 4.99335 2 5.31477 2 5.66563M2 5.66675H10C11.8856 5.66675 12.8284 5.66675 13.4142 6.25253C14 6.83835 14 7.78115 14 9.66675V10.3334C14 12.219 14 13.1618 13.4142 13.7476C12.8284 14.3334 11.8856 14.3334 10 14.3334H6C4.11438 14.3334 3.17157 14.3334 2.58579 13.7476C2 13.1618 2 12.219 2 10.3334V5.66675Z" stroke="white" stroke-width="1.3" stroke-linecap="round" stroke-linejoin="round"/>
</svg>
